<?xml version="1.0" standalone="no"?>
<!DOCTYPE svg PUBLIC "-//W3C//DTD SVG 20010904//EN"
 "http://www.w3.org/TR/2001/REC-SVG-20010904/DTD/svg10.dtd">
<svg version="1.0" xmlns="http://www.w3.org/2000/svg"
 width="800.000000pt" height="178.000000pt" viewBox="0 0 800.000000 178.000000"
 preserveAspectRatio="xMidYMid meet">

<g transform="translate(0.000000,178.000000) scale(0.100000,-0.100000)"
fill="#000000" stroke="none">
<path d="M2873 1573 c-47 -9 -53 -35 -53 -216 0 -156 -1 -168 -17 -163 -10 3
-83 7 -161 8 -195 4 -181 26 -202 -299 -11 -177 -35 -352 -49 -366 -15 -15
-84 -27 -158 -27 l-72 0 -6 33 c-3 17 -18 163 -34 324 -17 161 -34 301 -40
311 -6 11 -18 23 -28 27 -30 13 -285 18 -316 6 -37 -14 -44 -37 -54 -172 l-8
-114 -34 100 c-37 110 -45 123 -78 136 -38 14 -310 39 -432 39 -99 0 -121 -3
-149 -20 -26 -16 -37 -18 -54 -9 -35 19 -168 38 -263 39 -70 0 -97 -4 -120
-18 -24 -15 -60 -20 -185 -25 -152 -6 -256 -23 -284 -46 -40 -33 -59 -258 -53
-634 4 -303 11 -358 47 -377 20 -11 308 -14 359 -4 56 11 62 32 72 251 9 191
23 362 35 409 8 30 76 77 106 72 20 -3 25 -12 35 -63 6 -33 16 -187 21 -342 6
-167 15 -290 21 -302 16 -29 50 -36 176 -36 128 1 150 9 165 64 14 54 28 370
22 525 -4 102 -2 130 9 137 21 13 95 11 107 -3 13 -16 34 -157 67 -441 14
-120 30 -229 35 -242 14 -36 73 -48 216 -43 147 5 166 14 188 89 9 29 19 80
22 115 4 35 10 64 13 64 4 0 15 -22 25 -49 33 -94 68 -137 130 -160 102 -38
385 -64 462 -42 21 6 38 5 55 -5 29 -16 239 -19 338 -4 87 12 100 27 115 131
l12 84 11 -89 c12 -101 23 -116 85 -116 63 0 231 30 255 46 13 8 25 24 27 37
3 12 7 141 10 285 2 145 7 266 10 269 3 3 13 0 21 -7 11 -9 49 -14 113 -14
l96 -1 1 -230 0 -230 28 -57 c22 -46 40 -65 89 -98 58 -39 63 -40 143 -40 90
0 449 27 477 36 10 3 26 0 36 -5 28 -15 259 -42 291 -35 66 16 67 49 1 315
-27 112 -50 208 -50 212 0 5 9 7 21 5 16 -2 56 -66 169 -268 119 -212 154
-267 177 -277 45 -20 436 -2 469 21 10 8 18 29 20 52 1 27 6 38 16 35 41 -12
364 -22 557 -18 199 5 226 7 249 24 45 33 84 181 127 479 15 98 24 189 22 202
-2 12 0 22 5 22 9 0 198 -159 198 -167 0 -1 -50 -63 -110 -136 -161 -193 -166
-228 -45 -309 105 -71 241 -128 304 -128 51 0 52 1 79 45 86 141 143 225 154
225 7 0 65 -37 128 -83 224 -162 368 -256 405 -263 25 -4 47 -2 69 8 41 20
185 136 269 218 61 60 67 69 67 106 0 22 -6 47 -12 56 -7 9 -71 40 -143 69
-126 51 -469 219 -489 239 -19 19 254 276 403 381 64 45 75 63 69 120 -4 42
-25 53 -193 104 -130 39 -199 51 -239 41 -32 -8 -105 -69 -275 -229 -74 -70
-138 -127 -141 -127 -4 0 -39 33 -77 74 -92 97 -105 100 -249 51 -60 -20 -141
-52 -180 -70 -69 -31 -72 -34 -79 -74 -4 -22 -9 -41 -12 -41 -3 0 -32 25 -66
55 -92 84 -118 87 -326 44 -52 -10 -97 -17 -100 -14 -2 3 5 92 17 198 33 285
31 299 -42 312 -44 9 -254 -21 -282 -40 -13 -8 -26 -29 -29 -47 -6 -37 -35
-369 -35 -405 0 -43 -16 -23 -39 50 -43 135 -93 252 -114 271 -20 17 -34 18
-147 13 -194 -9 -783 -91 -853 -119 -40 -16 -48 -46 -46 -172 1 -107 1 -111
-20 -110 -11 0 -59 1 -106 2 l-85 2 0 68 c0 37 -3 132 -7 211 -5 115 -10 148
-23 161 -17 17 -257 60 -336 60 -72 0 -76 -12 -85 -228 -4 -103 -8 -204 -8
-224 l-1 -38 -77 0 c-43 0 -95 -5 -116 -11 -22 -6 -40 -9 -41 -7 -1 2 4 107
12 235 8 127 12 243 8 257 -4 16 -17 28 -38 35 -54 17 -352 43 -395 34z m292
-77 c78 -9 90 -14 88 -29 -20 -248 -53 -931 -53 -1119 l0 -147 -32 -5 c-18 -3
-73 -13 -122 -21 -49 -8 -91 -13 -92 -12 -2 1 -15 132 -29 291 -30 337 -44
617 -45 879 l0 189 98 -7 c53 -4 138 -13 187 -19z m2578 17 c2 -5 -6 -93 -18
-198 -40 -334 -39 -325 -13 -325 13 0 73 11 133 25 60 13 134 27 165 31 54 6
57 5 105 -34 28 -23 79 -67 114 -100 l64 -58 -12 -100 c-19 -156 -61 -382 -87
-466 l-24 -76 -98 -8 c-150 -11 -643 2 -654 18 -13 18 -1 500 17 713 29 350
47 550 50 553 6 6 168 30 212 31 23 0 44 -2 46 -6z m-1998 -67 c50 -8 109 -18
133 -21 l42 -7 0 -228 0 -228 130 -4 c103 -2 133 -6 140 -18 5 -8 10 -50 10
-92 l0 -78 -136 7 -137 6 6 -44 c4 -24 9 -99 13 -167 6 -111 9 -127 31 -152
23 -28 28 -29 126 -32 l101 -3 12 -43 c7 -23 16 -73 20 -111 l6 -69 -68 -7
c-38 -3 -154 -12 -259 -19 -214 -15 -227 -13 -292 56 -61 64 -65 85 -62 352
l3 241 -119 0 -120 0 -3 72 c-4 112 -3 113 133 113 62 0 116 3 118 8 3 4 8
108 12 232 4 124 9 233 12 243 3 14 11 17 31 13 15 -3 68 -12 117 -20z m1453
-88 c29 -37 172 -470 172 -525 0 -15 -76 -110 -97 -121 -10 -5 -124 -18 -253
-27 -129 -10 -237 -19 -239 -21 -2 -2 54 -58 125 -126 71 -67 196 -188 277
-268 175 -171 184 -155 -94 -161 l-181 -4 -153 275 c-169 302 -156 287 -253
275 l-54 -7 7 -36 c3 -21 31 -138 61 -261 30 -123 52 -226 49 -229 -6 -6 -244
23 -251 31 -14 14 -68 916 -62 1032 l3 60 185 31 c203 34 490 72 634 84 50 4
96 8 102 9 6 0 16 -5 22 -11z m2264 -54 c67 -19 140 -43 161 -52 l39 -17 -114
-85 c-100 -75 -428 -381 -428 -400 0 -24 348 -205 555 -289 72 -29 135 -57
140 -63 12 -12 -85 -105 -228 -219 l-98 -79 -42 27 c-71 44 -255 172 -391 271
-101 74 -133 93 -145 85 -18 -11 -104 -136 -162 -235 -22 -38 -45 -68 -52 -68
-35 1 -290 134 -336 176 -5 5 34 56 167 217 96 116 112 141 101 152 -8 7 -77
66 -154 132 -77 66 -146 127 -154 136 -12 15 -7 20 52 48 36 16 114 47 173 68
l108 37 99 -103 100 -103 151 148 c199 194 269 252 306 252 15 0 84 -16 152
-36z m-6660 -165 c90 -12 116 -23 136 -59 9 -16 19 -30 22 -30 3 0 18 20 33
45 l29 45 116 0 c65 0 178 -7 252 -15 74 -8 140 -15 147 -15 21 0 121 -325
134 -435 15 -123 7 -344 -16 -442 -16 -69 -18 -73 -48 -78 -18 -3 -81 -5 -142
-3 l-109 3 -7 35 c-4 19 -19 139 -33 265 -27 234 -51 392 -65 413 -4 6 -39 14
-79 18 -59 6 -80 4 -114 -12 l-41 -18 6 -156 c8 -172 -8 -519 -24 -535 -13
-13 -200 -18 -218 -6 -12 7 -16 62 -23 268 -8 255 -27 436 -47 456 -6 6 -34
12 -64 15 -49 4 -58 1 -105 -32 -28 -21 -53 -45 -56 -54 -21 -71 -46 -345 -46
-503 0 -48 -3 -101 -6 -118 l-6 -31 -164 0 -163 0 -8 38 c-14 65 -9 718 6 800
14 77 20 85 82 96 62 11 273 24 301 19 23 -4 27 -11 30 -42 l3 -36 33 57 c18
31 40 59 50 61 20 6 110 0 204 -14z m1227 -1 c4 -13 23 -169 41 -348 17 -179
36 -329 40 -333 12 -14 183 -9 261 7 39 9 73 17 75 19 15 15 49 297 62 524 5
73 11 135 14 138 2 3 66 2 142 -2 136 -6 136 -6 144 -32 10 -35 9 -802 -1
-871 -4 -30 -12 -62 -17 -69 -7 -12 -46 -16 -178 -19 l-170 -5 -7 50 c-10 76
-17 79 -56 20 l-34 -52 -84 -3 c-104 -4 -288 21 -346 47 -38 17 -48 28 -78 93
-46 96 -74 190 -87 290 -11 92 -14 411 -4 507 l7 61 134 0 c129 0 134 -1 142
-22z m2186 -518 c10 -162 10 -169 3 -170 -5 0 -48 0 -98 0 -78 0 -91 2 -100
19 -5 11 -13 72 -16 135 l-7 117 106 -3 105 -3 7 -95z m1141 -173 l-1 -254
-217 211 c-119 116 -216 211 -215 212 1 1 72 7 157 14 185 14 226 22 254 49
11 12 21 21 21 21 1 0 1 -114 1 -253z"/>
<path d="M5989 776 c-3 -3 -52 -12 -109 -21 -58 -9 -126 -21 -152 -26 l-48
-11 0 -169 0 -169 78 1 c42 1 104 4 137 8 l60 6 27 165 c15 91 27 177 28 193
0 24 -9 34 -21 23z m-50 -98 c0 -13 -8 -68 -17 -123 -20 -113 -19 -112 -124
-114 l-58 -1 0 115 c0 129 -10 115 95 134 88 16 105 14 104 -11z"/>
<path d="M4460 1074 c0 -68 17 -234 24 -241 3 -3 89 2 191 10 137 10 189 18
196 28 14 22 11 212 -3 232 -11 15 -41 18 -210 24 l-198 6 0 -59z m293 -11
l68 -6 -3 -71 -3 -71 -139 -13 c-77 -7 -141 -11 -142 -9 -2 2 -7 42 -10 90
l-7 87 84 0 c46 0 115 -3 152 -7z"/>
</g>
</svg>
